<?xml version="1.0" encoding="UTF-8"?>
<svg version="1.1" xmlns="http://www.w3.org/2000/svg" width="48" height="48">
<path d="M0 0 C15.84 0 31.68 0 48 0 C48 15.84 48 31.68 48 48 C32.16 48 16.32 48 0 48 C0 32.16 0 16.32 0 0 Z " fill="#FAFAFA" transform="translate(0,0)"/>
<path d="M0 0 C3.96435763 2.17651007 6.33686422 3.79368349 8 8 C8.484375 10.65625 8.484375 10.65625 8.75 13.5 C8.89695312 14.90765625 8.89695312 14.90765625 9.046875 16.34375 C8.99720163 19.15857407 8.4557365 20.62602971 7 23 C6.34 23 5.68 23 5 23 C5.0129915 26.09847284 5.19200984 28.99966322 6 32 C8.56294158 33.7848507 8.56294158 33.7848507 12 35 C13.65862054 36.11835326 15.28252372 37.28931614 16.875 38.5 C17.65617187 39.0878125 18.43734375 39.675625 19.2421875 40.28125 C19.82226562 40.8484375 20.40234375 41.415625 21 42 C21 42.99 21 43.98 21 45 C5.82 45 -9.36 45 -25 45 C-21.53982757 39.23304595 -19.98956051 37.13892539 -13.8125 34.8125 C-12.91144531 34.46832031 -12.01039062 34.12414063 -11.08203125 33.76953125 C-10.39496094 33.51558594 -9.70789062 33.26164062 -9 33 C-9.30035156 32.30390625 -9.60070313 31.6078125 -9.91015625 30.890625 C-11.42670059 26.86824933 -12.22527302 22.74443498 -13.12109375 18.546875 C-13.41113281 17.70640625 -13.70117188 16.8659375 -14 16 C-14.99 15.67 -15.98 15.34 -17 15 C-17.39289754 11.66037095 -16.99733409 9.99455709 -15.5 6.9375 C-11.71924823 2.49511667 -6.07987443 -1.27997356 0 0 Z " fill="#ADADAD" transform="translate(27,3)"/>
<path d="M0 0 C3.62840973 0.61583101 5.86120883 2.13760292 8.75 4.375 C9.54921875 4.98085938 10.3484375 5.58671875 11.171875 6.2109375 C11.77515625 6.80132812 12.3784375 7.39171875 13 8 C13 8.99 13 9.98 13 11 C-2.18 11 -17.36 11 -33 11 C-29.72061128 5.53435214 -28.10083612 2.84443883 -22 1 C-18.6875 0.875 -18.6875 0.875 -16 1 C-15.87625 1.639375 -15.7525 2.27875 -15.625 2.9375 C-15.41875 3.618125 -15.2125 4.29875 -15 5 C-12.13391871 6.43304064 -10.18699217 6.30644155 -7 6 C-2.77518254 3.7241177 -2.77518254 3.7241177 0 0 Z " fill="#070707" transform="translate(35,37)"/>
<path d="M0 0 C2.99150295 1.64239377 5.30133524 3.07903281 7.375 5.8125 C8.28391253 8.99369385 8.30404129 11.71635403 8 15 C7.01 15.66 6.02 16.32 5 17 C4.773125 16.401875 4.54625 15.80375 4.3125 15.1875 C2.18993485 11.64989142 -0.71416381 10.40770416 -4.5625 9.1875 C-7.36529953 8.97190004 -8.65083202 9.52089424 -11 11 C-11 12.32 -11 13.64 -11 15 C-12.98 15 -14.96 15 -17 15 C-17.39289754 11.66037095 -16.99733409 9.99455709 -15.5 6.9375 C-11.71924823 2.49511667 -6.07987443 -1.27997356 0 0 Z " fill="#151515" transform="translate(27,3)"/>
<path d="M0 0 C0.33 0 0.66 0 1 0 C1.12375 0.969375 1.2475 1.93875 1.375 2.9375 C1.58125 3.948125 1.7875 4.95875 2 6 C2.66 6.33 3.32 6.66 4 7 C4 8.98 4 10.96 4 13 C4.99 13.33 5.98 13.66 7 14 C7.66 14.66 8.32 15.32 9 16 C8.01 17.32 7.02 18.64 6 20 C8.64 19.34 11.28 18.68 14 18 C11.375 21.875 11.375 21.875 8 23 C8.33 24.98 8.66 26.96 9 29 C9.99 29.33 10.98 29.66 12 30 C6.375 30.25 6.375 30.25 3 28 C3 26.68 3 25.36 3 24 C1.68 23.67 0.36 23.34 -1 23 C-0.01 22.67 0.98 22.34 2 22 C1.7009375 21.30390625 1.401875 20.6078125 1.09375 19.890625 C-0.42948253 15.86493902 -1.27774086 11.7405027 -2.21875 7.546875 C-2.60546875 6.28617188 -2.60546875 6.28617188 -3 5 C-3.66 4.67 -4.32 4.34 -5 4 C-3.35 4 -1.7 4 0 4 C0 2.68 0 1.36 0 0 Z " fill="#7C7C7C" transform="translate(16,14)"/>
<path d="M0 0 C2.92803987 0.97601329 5.17533133 1.98525559 7.625 3.875 C7.625 5.195 7.625 6.515 7.625 7.875 C5.315 8.205 3.005 8.535 0.625 8.875 C0.295 11.185 -0.035 13.495 -0.375 15.875 C-1.035 15.875 -1.695 15.875 -2.375 15.875 C-2.375 13.895 -2.375 11.915 -2.375 9.875 C-3.365 9.545 -4.355 9.215 -5.375 8.875 C-5.73575949 3.46360759 -5.73575949 3.46360759 -4.1875 0.9375 C-2.375 -0.125 -2.375 -0.125 0 0 Z " fill="#BEBEBE" transform="translate(22.375,11.125)"/>
<path d="M0 0 C0.66 0.99 1.32 1.98 2 3 C2.99 3.33 3.98 3.66 5 4 C4.67 4.99 4.34 5.98 4 7 C3.34 7 2.68 7 2 7 C2 9.31 2 11.62 2 14 C1.67 13.34 1.34 12.68 1 12 C0.01 11.67 -0.98 11.34 -2 11 C-2.6875 8.9375 -2.6875 8.9375 -3 7 C-3.33 7.66 -3.66 8.32 -4 9 C-4.66 9 -5.32 9 -6 9 C-6.33 7.68 -6.66 6.36 -7 5 C-5.68 5 -4.36 5 -3 5 C-2.814375 4.0409375 -2.814375 4.0409375 -2.625 3.0625 C-2.41875 2.381875 -2.2125 1.70125 -2 1 C-1.34 0.67 -0.68 0.34 0 0 Z " fill="#B9B9B9" transform="translate(30,19)"/>
<path d="M0 0 C2.97 0.495 2.97 0.495 6 1 C5.814375 1.763125 5.62875 2.52625 5.4375 3.3125 C4.77180827 6.08967375 4.77180827 6.08967375 6 9 C6.99 9.33 7.98 9.66 9 10 C3.375 10.25 3.375 10.25 0 8 C0 6.68 0 5.36 0 4 C-1.32 3.67 -2.64 3.34 -4 3 C-3.01 2.67 -2.02 2.34 -1 2 C-0.67 1.34 -0.34 0.68 0 0 Z " fill="#676767" transform="translate(19,34)"/>
<path d="M0 0 C0.433125 0.495 0.86625 0.99 1.3125 1.5 C2.99740483 3.33218192 2.99740483 3.33218192 6 3 C5.67 4.32 5.34 5.64 5 7 C3.68 7 2.36 7 1 7 C0.67 4.69 0.34 2.38 0 0 Z M-7 3 C-4.69 3 -2.38 3 0 3 C-0.99 3.495 -0.99 3.495 -2 4 C-2 4.66 -2 5.32 -2 6 C-3.65 6.33 -5.3 6.66 -7 7 C-7 5.68 -7 4.36 -7 3 Z " fill="#898989" transform="translate(30,16)"/>
<path d="M0 0 C2.4375 0.875 2.4375 0.875 4.4375 3.875 C2.1275 3.875 -0.1825 3.875 -2.5625 3.875 C-2.5625 5.855 -2.5625 7.835 -2.5625 9.875 C-3.5525 9.545 -4.5425 9.215 -5.5625 8.875 C-5.92325949 3.46360759 -5.92325949 3.46360759 -4.375 0.9375 C-2.5625 -0.125 -2.5625 -0.125 0 0 Z " fill="#9A9A9A" transform="translate(22.5625,11.125)"/>
<path d="M0 0 C2 0 2 0 4 1.875 C4.66 2.57625 5.32 3.2775 6 4 C6.66 4.66 7.32 5.32 8 6 C5.69 6.33 3.38 6.66 1 7 C-1 4 -1 4 -0.625 1.8125 C-0.41875 1.214375 -0.2125 0.61625 0 0 Z " fill="#A1A1A1" transform="translate(24,36)"/>
<path d="M0 0 C0.33 0 0.66 0 1 0 C1.12375 0.969375 1.2475 1.93875 1.375 2.9375 C1.58125 3.948125 1.7875 4.95875 2 6 C2.66 6.33 3.32 6.66 4 7 C3.67 7.99 3.34 8.98 3 10 C0.5625 9.1875 0.5625 9.1875 -2 8 C-2.33 7.01 -2.66 6.02 -3 5 C-3.66 4.67 -4.32 4.34 -5 4 C-3.35 4 -1.7 4 0 4 C0 2.68 0 1.36 0 0 Z " fill="#575757" transform="translate(16,14)"/>
<path d="M0 0 C2.875 0.3125 2.875 0.3125 6 1 C6.66 1.99 7.32 2.98 8 4 C7 5 7 5 4.5625 5.1875 C2 5 2 5 0 3 C0 2.01 0 1.02 0 0 Z " fill="#636363" transform="translate(17,26)"/>
<path d="M0 0 C0.66 0.99 1.32 1.98 2 3 C2.99 3.33 3.98 3.66 5 4 C4.67 4.99 4.34 5.98 4 7 C3.01 7.33 2.02 7.66 1 8 C0.690625 7.21625 0.38125 6.4325 0.0625 5.625 C-0.92875038 3.07669872 -0.92875038 3.07669872 -2 1 C-1.34 0.67 -0.68 0.34 0 0 Z M-2 6 C0 7 0 7 0 7 Z " fill="#ABABAB" transform="translate(30,19)"/>
<path d="M0 0 C2.97 0.495 2.97 0.495 6 1 C5.67 2.32 5.34 3.64 5 5 C4.34 5 3.68 5 3 5 C2.34 5.66 1.68 6.32 1 7 C0.67 4.69 0.34 2.38 0 0 Z " fill="#8B8B8B" transform="translate(14,22)"/>
<path d="M0 0 C2.475 0.99 2.475 0.99 5 2 C3.515 4.475 3.515 4.475 2 7 C1.34 6.67 0.68 6.34 0 6 C0 4.02 0 2.04 0 0 Z " fill="#929292" transform="translate(31,34)"/>
<path d="M0 0 C1.32 0 2.64 0 4 0 C4.33 0.99 4.66 1.98 5 3 C3.35 3.33 1.7 3.66 0 4 C0 2.68 0 1.36 0 0 Z " fill="#565656" transform="translate(23,19)"/>
</svg>
