<?xml version="1.0" encoding="UTF-8"?>
<svg version="1.1" xmlns="http://www.w3.org/2000/svg" width="16" height="16">
<path d="M0 0 C5.28 0 10.56 0 16 0 C16 5.28 16 10.56 16 16 C10.72 16 5.44 16 0 16 C0 10.72 0 5.44 0 0 Z " fill="#FAFAFA" transform="translate(0,0)"/>
<path d="M0 0 C2.97 0 5.94 0 9 0 C8.319375 0.309375 7.63875 0.61875 6.9375 0.9375 C4.75774472 2.79612983 4.75774472 2.79612983 4.95703125 5.203125 C5.22673374 7.4902021 5.56392354 9.73903835 6 12 C4.02 13.32 2.04 14.64 0 16 C0 10.72 0 5.44 0 0 Z " fill="#F2F2F2" transform="translate(0,0)"/>
<path d="M0 0 C0.8971875 0.309375 0.8971875 0.309375 1.8125 0.625 C1.8125 1.615 1.8125 2.605 1.8125 3.625 C0.1625 3.295 -1.4875 2.965 -3.1875 2.625 C-2.93188677 4.9681213 -2.59479228 7.30343403 -2.1875 9.625 C-1.5275 9.955 -0.8675 10.285 -0.1875 10.625 C-0.5175 11.285 -0.8475 11.945 -1.1875 12.625 C0.7925 12.295 2.7725 11.965 4.8125 11.625 C5.8025 13.11 5.8025 13.11 6.8125 14.625 C1.8625 14.625 -3.0875 14.625 -8.1875 14.625 C-6.8675 13.305 -5.5475 11.985 -4.1875 10.625 C-3.91771061 8.25037209 -3.91771061 8.25037209 -4.4375 5.875 C-4.56640625 5.07578125 -4.6953125 4.2765625 -4.828125 3.453125 C-4.94671875 2.84984375 -5.0653125 2.2465625 -5.1875 1.625 C-2.1875 -0.375 -2.1875 -0.375 0 0 Z " fill="#6D6D6D" transform="translate(9.1875,1.375)"/>
<path d="M0 0 C0.33 0 0.66 0 1 0 C0.67 2.97 0.34 5.94 0 9 C0.66 9.33 1.32 9.66 2 10 C0.35 10.33 -1.3 10.66 -3 11 C-3.66 7.7 -4.32 4.4 -5 1 C-2.525 1.495 -2.525 1.495 0 2 C0 1.34 0 0.68 0 0 Z " fill="#9B9B9B" transform="translate(11,3)"/>
<path d="M0 0 C1.60875 0.2784375 1.60875 0.2784375 3.25 0.5625 C6.40391546 0.9304568 8.09818492 1.04465343 11 0 C11.66 0.99 12.32 1.98 13 3 C8.05 3 3.1 3 -2 3 C-1.34 2.01 -0.68 1.02 0 0 Z " fill="#080808" transform="translate(3,13)"/>
<path d="M0 0 C0 0.99 0 1.98 0 3 C-1.175625 2.9690625 -1.175625 2.9690625 -2.375 2.9375 C-4.98114961 2.81315937 -4.98114961 2.81315937 -7 4 C-6.625 2.0625 -6.625 2.0625 -6 0 C-3.50907189 -1.24546405 -2.58919267 -0.7767578 0 0 Z " fill="#1B1B1B" transform="translate(11,2)"/>
</svg>
